<?xml version="1.0" encoding="UTF-8" standalone="no"?>
<svg
   xmlns:dc="http://purl.org/dc/elements/1.1/"
   xmlns:cc="http://creativecommons.org/ns#"
   xmlns:rdf="http://www.w3.org/1999/02/22-rdf-syntax-ns#"
   xmlns:svg="http://www.w3.org/2000/svg"
   xmlns="http://www.w3.org/2000/svg"
   xmlns:sodipodi="http://sodipodi.sourceforge.net/DTD/sodipodi-0.dtd"
   xmlns:inkscape="http://www.inkscape.org/namespaces/inkscape"
   inkscape:version="1.0beta2 (2b71d25, 2019-12-03)"
   sodipodi:docname="hatenabookmark.svg"
   id="svg837"
   version="1.1"
   viewBox="0 0 24 24"
   role="img">
  <metadata
     id="metadata843">
    <rdf:RDF>
      <cc:Work
         rdf:about="">
        <dc:format>image/svg+xml</dc:format>
        <dc:type
           rdf:resource="http://purl.org/dc/dcmitype/StillImage" />
      </cc:Work>
    </rdf:RDF>
  </metadata>
  <defs
     id="defs841" />
  <sodipodi:namedview
     inkscape:current-layer="svg837"
     inkscape:window-maximized="0"
     inkscape:window-y="23"
     inkscape:window-x="0"
     inkscape:cy="12"
     inkscape:cx="12"
     inkscape:zoom="28"
     showgrid="false"
     id="namedview839"
     inkscape:window-height="480"
     inkscape:window-width="864"
     inkscape:pageshadow="2"
     inkscape:pageopacity="0"
     guidetolerance="10"
     gridtolerance="10"
     objecttolerance="10"
     borderopacity="1"
     inkscape:document-rotation="0"
     bordercolor="#666666"
     pagecolor="#ffffff" />
  <title
     id="title833">Hatena Bookmark icon</title>
  <path
     style="fill:#ffffff"
     id="path835"
     d="M20.47 0C22.42 0 24 1.58 24 3.53v16.94c0 1.95-1.58 3.53-3.53 3.53H3.53C1.58 24 0 22.42 0 20.47V3.53C0 1.58 1.58 0 3.53 0h16.94zm-3.705 14.47c-.78 0-1.41.63-1.41 1.41s.63 1.414 1.41 1.414 1.41-.645 1.41-1.425-.63-1.41-1.41-1.41zM8.61 17.247c1.2 0 2.056-.042 2.58-.12.526-.084.976-.222 1.32-.412.45-.232.78-.564 1.02-.99s.36-.915.36-1.48c0-.78-.21-1.403-.63-1.87-.42-.48-.99-.734-1.74-.794.66-.18 1.156-.45 1.456-.81.315-.344.465-.824.465-1.424 0-.48-.103-.885-.3-1.26-.21-.36-.493-.645-.883-.87-.345-.195-.735-.315-1.215-.405-.464-.074-1.29-.12-2.474-.12H5.654v10.486H8.61zm.736-4.185c.705 0 1.185.088 1.44.262.27.18.39.495.39.93 0 .405-.135.69-.42.855-.27.18-.765.254-1.44.254H8.31v-2.297h1.05zm8.656.706v-7.06h-2.46v7.06H18zM8.925 9.08c.71 0 1.185.08 1.432.24.245.16.367.435.367.83 0 .38-.13.646-.39.804-.265.154-.747.232-1.452.232h-.57V9.08h.615z" />
</svg>
